<svg version="1.1" id="Layer_1" xmlns="http://www.w3.org/2000/svg" xmlns:xlink="http://www.w3.org/1999/xlink" x="0px" y="0px"
	 width="100%" viewBox="0 0 820 293" enable-background="new 0 0 820 293" xml:space="preserve">
<path fill="#FEFEFE" opacity="1.000000" stroke="none" 
	d="
M520.000000,294.000000 
	C346.705475,294.000000 173.910950,294.000000 1.058210,294.000000 
	C1.058210,196.394104 1.058210,98.788155 1.058210,1.091103 
	C274.211182,1.091103 547.422424,1.091103 820.816833,1.091103 
	C820.816833,98.666397 820.816833,196.333160 820.816833,294.000000 
	C720.788147,294.000000 620.644104,294.000000 520.000000,294.000000 
M793.219177,53.756836 
	C790.176575,49.395981 786.015259,48.711628 781.399902,50.534462 
	C776.991272,52.275589 774.609131,56.341595 776.019592,61.396202 
	C776.793945,64.171593 779.274170,67.175255 781.813354,68.591560 
	C785.782410,70.805435 789.836365,69.170097 793.752747,65.711609 
	C796.923828,61.858131 796.906982,57.995052 793.219177,53.756836 
M410.074524,250.001541 
	C407.629181,250.001541 405.183838,250.001541 401.789978,250.001541 
	C401.789978,243.986023 401.789978,238.638382 401.789978,233.290726 
	C401.314209,233.327774 400.838409,233.364822 400.362640,233.401855 
	C400.362640,239.501770 400.362640,245.601669 400.362640,251.750763 
	C404.031708,251.750763 407.494781,251.750763 411.790924,251.683380 
	C413.292358,250.972321 414.840393,250.343765 416.282898,249.528397 
	C417.929810,248.597458 419.361359,247.072693 421.105560,246.577347 
	C423.604095,245.867813 425.479584,246.890198 426.332703,249.728424 
	C426.640594,250.752686 428.169495,251.409927 429.141205,252.234650 
	C427.853363,246.164062 425.812836,240.922241 423.572205,235.767426 
	C423.119019,234.724823 421.909088,234.011169 421.048065,233.145844 
	C420.249542,234.067551 419.154083,234.864471 418.705048,235.933044 
	C416.974182,240.052139 415.555359,244.304230 413.763458,248.394287 
	C413.386627,249.254471 411.922424,249.638245 410.074524,250.001541 
M215.064240,138.279831 
	C221.013229,138.259460 226.962204,138.239090 233.056610,139.118988 
	C233.087433,147.442535 233.036560,155.767365 233.165619,164.089386 
	C233.460938,183.133331 242.185898,197.514679 258.110962,207.450912 
	C265.741699,212.212021 274.210876,214.230942 283.562439,211.832230 
	C283.562439,209.825378 283.563782,208.168839 283.562256,206.512283 
	C283.524872,165.887894 283.501282,125.263481 283.440033,84.639130 
	C283.423767,73.832512 285.074188,71.880898 295.642426,70.650536 
	C296.964966,70.496574 298.287689,70.334808 299.603058,70.130043 
	C304.866425,69.310692 306.733459,66.419739 305.309235,61.325283 
	C303.756592,55.771549 299.674957,52.368446 294.959381,49.740948 
	C284.914062,44.143799 274.597626,45.267769 264.775421,49.976944 
	C244.818344,59.545242 232.170395,74.170746 233.084976,97.821846 
	C233.418945,106.458450 232.990707,115.124519 231.985504,123.766479 
	C226.040466,123.721939 220.095413,123.677399 214.107346,122.742462 
	C214.091888,117.086456 214.145187,111.429214 214.043488,105.774757 
	C213.918167,98.808502 214.895187,91.534874 213.235977,84.937263 
	C208.106201,64.539536 193.983902,52.438770 174.131378,47.162876 
	C162.695419,44.123718 152.241669,46.885014 144.515320,56.420433 
	C138.795929,63.478962 141.306274,69.278267 150.206131,70.427261 
	C151.195663,70.555016 152.185333,70.685570 153.177887,70.785454 
	C161.394409,71.612343 163.922867,74.320778 163.925507,82.590767 
	C163.929871,96.232323 163.852325,109.873894 162.906418,123.659927 
	C141.294266,123.715034 119.682114,123.770142 97.849205,122.931908 
	C97.849205,98.678360 97.849205,74.424820 97.849205,49.504696 
	C93.252769,49.504696 89.574005,49.058109 86.037102,49.577511 
	C63.855896,52.834869 45.147400,74.583298 45.074768,97.047066 
	C44.996658,121.205406 44.978550,145.364075 45.019650,169.522446 
	C45.024136,172.161072 45.345287,174.855591 45.938190,177.427689 
	C50.046024,195.247925 67.988434,211.923782 85.978523,215.110886 
	C97.370796,217.129135 107.229744,214.735367 114.716049,205.597824 
	C120.495888,198.543121 118.055634,192.645813 109.195274,191.440460 
	C108.370331,191.328247 107.539825,191.257355 106.712540,191.161743 
	C100.396935,190.431961 97.711151,188.309448 97.644081,182.092545 
	C97.486115,167.451294 97.887558,152.804001 98.990173,138.221619 
	C120.594231,138.320541 142.198288,138.419464 163.774796,139.389908 
	C163.774796,163.502823 163.774796,187.615738 163.774796,212.494873 
	C167.873322,212.494873 171.529755,212.935684 175.046875,212.422241 
	C195.567963,209.426498 213.541229,188.605148 214.025421,167.323975 
	C214.244965,157.674210 214.119507,148.016617 215.064240,138.279831 
M403.086060,138.322113 
	C405.084442,138.291367 407.082794,138.233795 409.081177,138.233734 
	C528.391052,138.229446 647.700867,138.230026 767.010742,138.228531 
	C768.676941,138.228516 770.349243,138.296143 772.008057,138.179550 
	C775.950317,137.902451 778.015442,135.644852 778.355225,131.787125 
	C778.846008,126.215683 775.860474,123.767822 768.594482,123.767632 
	C648.618103,123.764404 528.641724,123.766495 408.665314,123.755989 
	C406.503418,123.755798 404.341522,123.616035 402.175720,122.661789 
	C402.165253,114.833176 402.058472,107.003273 402.163055,99.176201 
	C402.435730,78.770187 392.316437,64.436058 375.506683,54.375965 
	C367.825531,49.779049 359.292236,47.755356 349.903870,50.182083 
	C349.903870,52.007378 349.903412,53.653519 349.903931,55.299660 
	C349.916321,95.941956 349.930084,136.584259 349.937012,177.226547 
	C349.937317,179.057541 350.021881,180.905334 349.814392,182.716324 
	C349.252441,187.620453 346.687683,190.643463 341.543518,191.099686 
	C339.886414,191.246643 338.234741,191.474228 336.588013,191.715622 
	C330.089081,192.668350 328.078308,196.082565 330.784027,202.246704 
	C333.899078,209.343414 339.947113,213.087463 347.138245,214.869507 
	C358.591644,217.707779 368.942230,214.185089 378.355682,207.999191 
	C392.358856,198.797195 402.095093,186.681290 402.259430,168.927704 
	C402.353485,158.769684 402.214020,148.609482 403.086060,138.322113 
M520.499939,215.168091 
	C522.498413,215.168091 524.497681,215.206436 526.495178,215.161438 
	C535.129211,214.966949 544.123474,216.234329 552.325256,214.244247 
	C572.544739,209.338211 584.595337,195.190002 589.876343,175.499649 
	C592.947937,164.047302 590.235474,153.620148 580.630981,145.892090 
	C573.357483,140.039688 567.715454,142.334076 566.478821,151.334534 
	C565.052856,161.713181 563.528442,163.052704 553.151672,163.037537 
	C517.846619,162.985947 482.541534,162.931839 447.236450,162.883179 
	C439.782440,162.872910 432.328430,162.881683 424.670807,162.881683 
	C424.392883,164.730072 424.103821,166.007141 424.021210,167.297440 
	C422.507782,190.944855 445.608948,214.820618 470.539490,215.134857 
	C486.857147,215.340530 503.179596,215.170074 520.499939,215.168091 
M706.500000,162.971024 
	C675.371704,162.971024 644.243469,162.971024 612.481628,162.971024 
	C612.481628,167.548538 611.803528,171.925919 612.594666,176.019302 
	C616.850098,198.035538 637.937927,215.139099 660.436462,215.166946 
	C682.751404,215.194565 705.066467,215.208893 727.381165,215.135834 
	C731.847107,215.121216 736.470825,215.352829 740.749573,214.330963 
	C760.014221,209.730011 776.398438,191.037552 778.790527,171.301270 
	C779.917725,162.001068 777.269104,153.839737 770.466797,147.259583 
	C767.238586,144.136841 763.385376,141.953033 758.756653,143.353790 
	C754.169922,144.741821 755.172424,149.175583 754.473328,152.615601 
	C754.440186,152.778534 754.422913,152.944763 754.400391,153.109741 
	C753.322510,161.008789 751.070496,163.014145 742.970642,163.029099 
	C731.147156,163.050934 719.323547,162.994736 706.500000,162.971024 
M551.226135,47.989941 
	C547.945312,47.538284 544.665283,46.703167 541.383545,46.696224 
	C517.238953,46.645111 493.093750,46.855461 468.949402,46.775703 
	C458.937653,46.742634 449.853333,49.538036 441.775909,55.184402 
	C429.021271,64.100296 420.451630,75.514038 420.863861,92.083603 
	C420.963348,96.082062 422.350739,97.025970 426.165344,97.011787 
	C460.469757,96.884178 494.774902,96.957611 529.079834,96.960640 
	C537.073181,96.961342 545.067993,96.817520 553.059509,96.928101 
	C559.493958,97.017128 562.382629,99.841812 563.078552,106.259804 
	C563.239990,107.748848 563.342346,109.245293 563.540283,110.729195 
	C564.714844,119.534142 570.191345,121.852295 577.338440,116.288948 
	C585.647217,109.821396 589.220093,100.963760 587.511414,90.717804 
	C584.018555,69.773933 571.885010,55.651268 551.226135,47.989941 
M761.487305,96.999786 
	C765.953308,96.999786 770.419373,96.999786 775.432617,96.999786 
	C775.432617,92.421577 776.068359,88.212990 775.326172,84.263336 
	C771.443359,63.600101 750.767334,46.974007 728.933533,46.848923 
	C706.293701,46.719212 683.652405,46.783413 661.012024,46.856358 
	C656.380249,46.871281 651.585571,46.608166 647.147339,47.660172 
	C628.304565,52.126545 611.930908,70.479538 609.241516,89.690315 
	C607.949829,98.916824 610.108032,107.225700 616.714294,114.033638 
	C620.069641,117.491318 624.084229,120.225403 629.118225,118.584999 
	C633.786743,117.063713 632.881104,112.462082 633.309082,108.786049 
	C634.471252,98.803459 636.583008,96.887848 646.623901,96.897217 
	C684.580078,96.932655 722.536194,96.966949 761.487305,96.999786 
M394.581177,241.509750 
	C394.618164,239.384125 395.311493,235.704651 394.580963,235.396057 
	C391.009521,233.887436 387.058350,233.277695 382.688629,232.215759 
	C382.688629,239.640961 382.688629,245.682953 382.688629,252.056503 
	C385.289612,252.056503 387.687775,252.454315 389.874878,251.945343 
	C392.090027,251.429825 395.084930,250.509308 395.907593,248.855515 
	C396.681610,247.299500 395.067719,244.555634 394.581177,241.509750 
M523.484558,233.106476 
	C519.703125,233.106476 515.921631,233.106476 511.907379,233.106476 
	C511.907379,239.648956 511.907379,245.701508 511.907379,251.302856 
	C516.723206,251.302856 521.200439,251.302856 525.677734,251.302856 
	C525.647461,250.866592 525.617188,250.430328 525.586914,249.994064 
	C522.006226,249.994064 518.425476,249.994064 514.651917,249.994064 
	C514.651917,247.714203 514.651917,245.987320 514.651917,244.058029 
	C518.148010,243.733719 521.368469,243.434967 524.588989,243.136230 
	C524.578003,242.602234 524.566956,242.068253 524.555908,241.534256 
	C521.247131,241.316010 517.938354,241.097778 514.808105,240.891312 
	C513.584961,236.799057 514.828064,235.100616 518.751282,235.445816 
	C520.398438,235.590759 522.085144,235.538177 523.719971,235.320465 
	C523.989746,235.284531 524.084229,233.931641 523.484558,233.106476 
M318.370972,235.787079 
	C321.652069,235.541550 324.933136,235.296021 328.214233,235.050491 
	C328.194153,234.590317 328.174103,234.130127 328.154053,233.669952 
	C323.784271,233.669952 319.414490,233.669952 315.000275,233.669952 
	C315.000275,239.814682 315.000275,245.821304 315.000275,251.466644 
	C319.797333,251.466644 324.189606,251.466644 328.581879,251.466644 
	C328.606201,251.037994 328.630524,250.609344 328.654846,250.180695 
	C325.005310,250.019516 321.355804,249.858337 317.703857,249.697052 
	C317.703857,247.642014 317.703857,245.910233 317.703857,244.032333 
	C321.212219,243.725815 324.387878,243.448364 327.563568,243.170929 
	C327.541412,242.606873 327.519257,242.042801 327.497101,241.478745 
	C324.193787,241.296036 320.890472,241.113327 317.326324,240.916183 
	C317.452820,239.067505 317.541870,237.765900 318.370972,235.787079 
M275.061768,240.847580 
	C274.218353,235.996536 271.544861,233.091629 266.441620,232.905640 
	C262.099976,232.747421 259.160889,234.790176 257.779999,238.896011 
	C256.410248,242.968719 256.582336,247.348083 260.088715,249.780472 
	C262.563049,251.496902 266.660400,252.291489 269.591095,251.606445 
	C274.219208,250.524643 275.350708,246.173416 275.061768,240.847580 
M486.184448,242.060440 
	C484.754822,241.648224 483.247040,241.402466 481.916931,240.778183 
	C480.512939,240.119217 479.178040,239.202927 478.071198,238.132095 
	C477.892426,237.959137 479.008270,235.655991 479.610138,235.616241 
	C481.443848,235.495209 483.410156,235.741974 485.143372,236.357040 
	C486.178162,236.724304 486.872528,238.050720 487.719940,238.945984 
	C488.109467,238.655151 488.498993,238.364334 488.888519,238.073502 
	C488.375610,236.997513 488.068756,235.188217 487.313110,234.975830 
	C484.451782,234.171631 481.372772,233.306900 478.524750,233.662628 
	C477.212952,233.826462 474.940338,237.421982 475.387115,238.301727 
	C476.421906,240.339401 478.745392,241.816391 480.752472,243.227600 
	C481.778809,243.949234 483.412537,243.791611 484.470093,244.488892 
	C485.440430,245.128632 486.659241,246.447632 486.569855,247.348373 
	C486.476074,248.293152 484.835907,249.917862 484.082733,249.807266 
	C481.838348,249.477768 479.574310,248.662903 477.589569,247.552307 
	C476.974640,247.208221 477.228424,245.311676 477.084473,244.125885 
	C476.251801,244.933350 475.419159,245.740799 474.586487,246.548248 
	C474.832703,249.689575 476.694305,252.144043 479.912872,252.023544 
	C482.893188,251.911972 486.073059,250.675354 488.579956,249.038208 
	C489.185791,248.642517 487.484650,244.714294 486.184448,242.060440 
M298.995392,234.261246 
	C296.050171,238.848724 296.731354,241.251282 301.543427,242.974503 
	C303.261444,243.589722 305.141418,243.829086 306.755371,244.628006 
	C307.628876,245.060425 308.764984,246.478088 308.595337,247.152756 
	C308.329742,248.209061 306.951385,249.857147 306.232208,249.766373 
	C303.967102,249.480499 301.678833,248.716690 299.641083,247.668304 
	C298.975616,247.325912 299.050659,245.544083 298.787018,244.420578 
	C298.097473,245.115585 297.407928,245.810593 296.718384,246.505615 
	C296.851379,250.871094 299.970734,252.280609 303.826965,252.445160 
	C307.361877,252.595963 310.687103,251.626312 311.296600,247.436523 
	C311.901825,243.276291 308.711029,242.130768 305.577637,241.154831 
	C304.945282,240.957870 304.162476,241.057098 303.643280,240.720337 
	C302.352356,239.882996 301.086487,238.954880 300.041504,237.845612 
	C299.880920,237.675110 300.864960,235.753098 301.457458,235.674072 
	C303.159241,235.447067 305.265594,235.208069 306.572357,236.013336 
	C307.648071,236.676208 307.808533,238.824387 308.374603,240.314301 
	C309.003967,239.679596 309.633301,239.044876 310.262665,238.410172 
	C309.631714,233.146698 306.421082,231.760590 298.995392,234.261246 
M539.321289,249.896194 
	C536.891174,249.896194 534.461060,249.896194 531.741089,249.896194 
	C531.867920,247.449280 531.958191,245.708298 532.062317,243.699066 
	C534.241394,243.699066 535.894836,243.764481 537.540588,243.679565 
	C539.007935,243.603851 540.466675,243.361908 541.929260,243.193329 
	C541.923157,242.662186 541.917053,242.131042 541.910950,241.599899 
	C538.628784,241.338455 535.346680,241.076996 531.745850,240.790161 
	C531.890991,238.862183 532.007751,237.311127 532.118774,235.836990 
	C535.980225,235.550781 539.298889,235.304810 542.617493,235.058838 
	C542.600342,234.594910 542.583130,234.130981 542.565918,233.667053 
	C538.169495,233.667053 533.773010,233.667053 529.329590,233.667053 
	C529.329590,239.799652 529.329590,245.833786 529.329590,251.419739 
	C534.147827,251.419739 538.534973,251.419739 542.922180,251.419739 
	C542.924622,251.094177 542.927124,250.768616 542.929626,250.443054 
	C542.034912,250.261719 541.140259,250.080383 539.321289,249.896194 
M355.989136,246.319595 
	C357.273163,238.832336 354.845856,233.992722 349.314575,233.011841 
	C344.637238,232.182388 340.497192,234.534042 339.073700,238.828918 
	C337.368622,243.973465 339.450623,249.750290 343.706635,251.683670 
	C348.146118,253.700409 352.665314,251.958420 355.989136,246.319595 
M576.591431,250.028076 
	C578.837219,244.602966 577.708679,242.962463 570.886475,240.864532 
	C569.182739,240.340591 567.751160,238.931656 566.194458,237.929474 
	C566.856873,237.062378 567.573120,235.427078 568.171753,235.469070 
	C570.140686,235.607208 572.112183,236.230682 573.989380,236.921341 
	C574.836548,237.233032 575.463440,238.143585 576.702576,239.232697 
	C575.994324,233.808487 572.474976,231.532608 567.764038,233.240356 
	C566.061462,233.857544 563.992004,235.949051 563.810486,237.561478 
	C563.636353,239.107590 565.349304,241.385956 566.859985,242.462387 
	C568.521118,243.645966 571.012146,243.594986 572.914978,244.538696 
	C573.868896,245.011795 574.948608,246.586258 574.822205,247.504410 
	C574.693787,248.437393 573.065491,249.942169 572.245422,249.849976 
	C570.121460,249.611160 568.022034,248.764175 566.034607,247.884628 
	C565.184387,247.508362 564.636963,246.447830 563.549255,245.257507 
	C563.492676,252.290070 569.255249,254.366913 576.591431,250.028076 
M459.725586,247.873657 
	C461.282318,249.402634 462.839050,250.931610 464.395782,252.460602 
	C464.762512,252.054947 465.129211,251.649307 465.495911,251.243668 
	C463.089783,247.909317 460.683655,244.574951 458.153564,241.068832 
	C460.552307,238.497101 462.751373,236.139435 464.950439,233.781769 
	C464.629669,233.393097 464.308899,233.004425 463.988159,232.615753 
	C462.309052,233.892334 460.572968,235.101685 458.966095,236.463516 
	C457.201599,237.959000 455.556152,239.594955 453.469147,241.531189 
	C453.102844,238.021271 452.849731,235.596115 452.459167,231.853851 
	C449.554657,237.572891 449.912445,249.718124 452.268951,251.867493 
	C453.120422,248.943787 453.980469,245.990707 455.212769,241.759415 
	C457.339172,244.640671 458.317596,245.966400 459.725586,247.873657 
M286.369080,249.853882 
	C282.127716,250.077835 280.910828,247.629822 280.988647,243.897186 
	C281.063416,240.310837 281.004791,236.721695 281.004791,233.133789 
	C277.459381,236.766525 277.587128,247.380539 279.770996,250.121368 
	C282.800018,253.922897 291.275665,253.176880 292.298920,248.595383 
	C293.397339,243.677322 292.976593,238.419937 293.218750,233.310623 
	C292.368896,233.254776 291.519012,233.198929 290.669159,233.143097 
	C290.577637,236.162857 290.543671,239.185776 290.378082,242.201477 
	C290.220673,245.067261 291.085144,248.421646 286.369080,249.853882 
M254.129715,249.151672 
	C254.129715,243.847870 254.129715,238.544067 254.129715,233.240265 
	C253.457306,233.196091 252.784882,233.151917 252.112473,233.107742 
	C251.724792,235.604263 251.337128,238.100784 250.931427,240.713409 
	C248.028275,240.713409 245.272369,240.713409 242.334427,240.713409 
	C242.072052,238.066360 241.828323,235.607376 241.510757,232.403458 
	C238.308868,236.485214 238.509979,249.615952 241.751419,252.420044 
	C241.931381,249.111282 242.084839,246.289780 242.245987,243.326996 
	C245.358063,243.326996 248.107040,243.326996 251.456787,243.326996 
	C251.456787,245.826385 251.362350,248.107254 251.525162,250.369614 
	C251.564407,250.915039 252.455490,251.399170 252.954834,251.911499 
	C253.342758,251.296402 253.730698,250.681290 254.129715,249.151672 
M546.124817,246.323761 
	C546.307129,248.245270 546.489441,250.166779 546.691162,252.292404 
	C547.875000,251.864624 548.412476,251.794754 548.436707,251.642960 
	C548.794739,249.398743 549.084534,247.143646 549.387329,244.914597 
	C559.289612,243.246643 561.648865,241.639938 560.561768,237.344757 
	C559.487854,233.101685 553.560974,231.690369 546.124878,234.061020 
	C546.124878,237.771347 546.124878,241.571915 546.124817,246.323761 
M445.671661,250.291855 
	C446.384247,249.002426 447.096802,247.712997 447.809387,246.423569 
	C447.542480,246.116379 447.275574,245.809204 447.008667,245.502029 
	C443.358246,248.012497 439.564117,253.904236 435.584808,247.643707 
	C433.981110,245.120636 434.229889,239.689301 435.950165,237.148880 
	C439.403534,232.049133 443.163910,236.534683 446.891968,239.480286 
	C446.987579,234.861725 444.543030,233.497986 441.540283,233.020309 
	C437.592072,232.392227 434.186676,233.611481 432.363312,237.399185 
	C430.240631,241.808685 430.486969,246.350067 433.816833,249.960754 
	C437.059479,253.476883 441.152985,253.282578 445.671661,250.291855 
M359.184235,248.193970 
	C359.582489,249.526382 359.980713,250.858795 360.378967,252.191208 
	C360.850891,252.068817 361.322815,251.946411 361.794769,251.824005 
	C362.002869,249.255936 362.210999,246.687866 362.413940,244.183838 
	C365.430115,243.789276 368.125671,243.436646 370.821198,243.084030 
	C370.805481,242.595474 370.789764,242.106918 370.774048,241.618362 
	C367.969116,241.318924 365.164154,241.019501 362.125580,240.695129 
	C362.216492,238.950485 362.290527,237.529495 362.372925,235.948257 
	C365.792389,235.635254 368.927429,235.348297 372.062500,235.061325 
	C371.992950,234.533997 371.923401,234.006668 371.853851,233.479340 
	C367.756287,233.479340 363.658752,233.479340 359.682007,233.479340 
	C359.454315,234.187347 359.270569,234.496872 359.267365,234.808258 
	C359.224792,238.958038 359.207520,243.108078 359.184235,248.193970 
M504.870819,244.774384 
	C505.006134,247.163147 505.141449,249.551910 505.276733,251.940674 
	C505.932434,251.888550 506.588135,251.836426 507.243835,251.784302 
	C507.175934,245.645493 507.982056,239.478790 506.729553,233.377792 
	C506.257019,233.369797 505.784454,233.361801 505.311920,233.353806 
	C505.037445,235.851074 504.762939,238.348343 504.516541,240.589874 
	C501.193878,240.589874 498.293945,240.589874 495.652679,240.589874 
	C495.211517,237.843506 494.840271,235.532333 494.468994,233.221176 
	C494.128479,233.294693 493.787964,233.368225 493.447449,233.441757 
	C493.447449,239.585739 493.447449,245.729721 493.447449,251.873703 
	C493.945984,251.888596 494.444550,251.903488 494.943085,251.918396 
	C495.090302,249.126755 495.237549,246.335129 495.425995,242.761795 
	C498.742523,243.161560 501.736786,243.522461 504.870819,244.774384 
z"/>
<path fill="#161515" opacity="1.000000" stroke="none" 
	d="
M98.062683,138.159149 
	C97.887558,152.804001 97.486115,167.451294 97.644081,182.092545 
	C97.711151,188.309448 100.396935,190.431961 106.712540,191.161743 
	C107.539825,191.257355 108.370331,191.328247 109.195274,191.440460 
	C118.055634,192.645813 120.495888,198.543121 114.716049,205.597824 
	C107.229744,214.735367 97.370796,217.129135 85.978523,215.110886 
	C67.988434,211.923782 50.046024,195.247925 45.938190,177.427689 
	C45.345287,174.855591 45.024136,172.161072 45.019650,169.522446 
	C44.978550,145.364075 44.996658,121.205406 45.074768,97.047066 
	C45.147400,74.583298 63.855896,52.834869 86.037102,49.577511 
	C89.574005,49.058109 93.252769,49.504696 97.849205,49.504696 
	C97.849205,74.424820 97.849205,98.678360 97.939194,123.855270 
	C98.040352,129.238800 98.051521,133.698975 98.062683,138.159149 
z"/>
<path fill="#151414" opacity="1.000000" stroke="none" 
	d="
M519.999878,215.168091 
	C503.179596,215.170074 486.857147,215.340530 470.539490,215.134857 
	C445.608948,214.820618 422.507782,190.944855 424.021210,167.297440 
	C424.103821,166.007141 424.392883,164.730072 424.670807,162.881683 
	C432.328430,162.881683 439.782440,162.872910 447.236450,162.883179 
	C482.541534,162.931839 517.846619,162.985947 553.151672,163.037537 
	C563.528442,163.052704 565.052856,161.713181 566.478821,151.334534 
	C567.715454,142.334076 573.357483,140.039688 580.630981,145.892090 
	C590.235474,153.620148 592.947937,164.047302 589.876343,175.499649 
	C584.595337,195.190002 572.544739,209.338211 552.325256,214.244247 
	C544.123474,216.234329 535.129211,214.966949 526.495178,215.161438 
	C524.497681,215.206436 522.498413,215.168091 519.999878,215.168091 
z"/>
<path fill="#151414" opacity="1.000000" stroke="none" 
	d="
M707.000000,162.971405 
	C719.323547,162.994736 731.147156,163.050934 742.970642,163.029099 
	C751.070496,163.014145 753.322510,161.008789 754.400391,153.109741 
	C754.422913,152.944763 754.440186,152.778534 754.473328,152.615601 
	C755.172424,149.175583 754.169922,144.741821 758.756653,143.353790 
	C763.385376,141.953033 767.238586,144.136841 770.466797,147.259583 
	C777.269104,153.839737 779.917725,162.001068 778.790527,171.301270 
	C776.398438,191.037552 760.014221,209.730011 740.749573,214.330963 
	C736.470825,215.352829 731.847107,215.121216 727.381165,215.135834 
	C705.066467,215.208893 682.751404,215.194565 660.436462,215.166946 
	C637.937927,215.139099 616.850098,198.035538 612.594666,176.019302 
	C611.803528,171.925919 612.481628,167.548538 612.481628,162.971024 
	C644.243469,162.971024 675.371704,162.971024 707.000000,162.971405 
z"/>
<path fill="#151414" opacity="1.000000" stroke="none" 
	d="
M402.179657,138.450272 
	C402.214020,148.609482 402.353485,158.769684 402.259430,168.927704 
	C402.095093,186.681290 392.358856,198.797195 378.355682,207.999191 
	C368.942230,214.185089 358.591644,217.707779 347.138245,214.869507 
	C339.947113,213.087463 333.899078,209.343414 330.784027,202.246704 
	C328.078308,196.082565 330.089081,192.668350 336.588013,191.715622 
	C338.234741,191.474228 339.886414,191.246643 341.543518,191.099686 
	C346.687683,190.643463 349.252441,187.620453 349.814392,182.716324 
	C350.021881,180.905334 349.937317,179.057541 349.937012,177.226547 
	C349.930084,136.584259 349.916321,95.941956 349.903931,55.299660 
	C349.903412,53.653519 349.903870,52.007378 349.903870,50.182083 
	C359.292236,47.755356 367.825531,49.779049 375.506683,54.375965 
	C392.316437,64.436058 402.435730,78.770187 402.163055,99.176201 
	C402.058472,107.003273 402.165253,114.833176 402.128662,123.597481 
	C402.114258,129.172211 402.146942,133.811234 402.179657,138.450272 
z"/>
<path fill="#171616" opacity="1.000000" stroke="none" 
	d="
M232.910217,123.777145 
	C232.990707,115.124519 233.418945,106.458450 233.084976,97.821846 
	C232.170395,74.170746 244.818344,59.545242 264.775421,49.976944 
	C274.597626,45.267769 284.914062,44.143799 294.959381,49.740948 
	C299.674957,52.368446 303.756592,55.771549 305.309235,61.325283 
	C306.733459,66.419739 304.866425,69.310692 299.603058,70.130043 
	C298.287689,70.334808 296.964966,70.496574 295.642426,70.650536 
	C285.074188,71.880898 283.423767,73.832512 283.440033,84.639130 
	C283.501282,125.263481 283.524872,165.887894 283.562256,206.512283 
	C283.563782,208.168839 283.562439,209.825378 283.562439,211.832230 
	C274.210876,214.230942 265.741699,212.212021 258.110962,207.450912 
	C242.185898,197.514679 233.460938,183.133331 233.165619,164.089386 
	C233.036560,155.767365 233.087433,147.442535 233.009064,138.189056 
	C232.944412,132.765121 232.927307,128.271133 232.910217,123.777145 
z"/>
<path fill="#151414" opacity="1.000000" stroke="none" 
	d="
M551.633728,48.064236 
	C571.885010,55.651268 584.018555,69.773933 587.511414,90.717804 
	C589.220093,100.963760 585.647217,109.821396 577.338440,116.288948 
	C570.191345,121.852295 564.714844,119.534142 563.540283,110.729195 
	C563.342346,109.245293 563.239990,107.748848 563.078552,106.259804 
	C562.382629,99.841812 559.493958,97.017128 553.059509,96.928101 
	C545.067993,96.817520 537.073181,96.961342 529.079834,96.960640 
	C494.774902,96.957611 460.469757,96.884178 426.165344,97.011787 
	C422.350739,97.025970 420.963348,96.082062 420.863861,92.083603 
	C420.451630,75.514038 429.021271,64.100296 441.775909,55.184402 
	C449.853333,49.538036 458.937653,46.742634 468.949402,46.775703 
	C493.093750,46.855461 517.238953,46.645111 541.383545,46.696224 
	C544.665283,46.703167 547.945312,47.538284 551.633728,48.064236 
z"/>
<path fill="#151414" opacity="1.000000" stroke="none" 
	d="
M760.989868,97.000732 
	C722.536194,96.966949 684.580078,96.932655 646.623901,96.897217 
	C636.583008,96.887848 634.471252,98.803459 633.309082,108.786049 
	C632.881104,112.462082 633.786743,117.063713 629.118225,118.584999 
	C624.084229,120.225403 620.069641,117.491318 616.714294,114.033638 
	C610.108032,107.225700 607.949829,98.916824 609.241516,89.690315 
	C611.930908,70.479538 628.304565,52.126545 647.147339,47.660172 
	C651.585571,46.608166 656.380249,46.871281 661.012024,46.856358 
	C683.652405,46.783413 706.293701,46.719212 728.933533,46.848923 
	C750.767334,46.974007 771.443359,63.600101 775.326172,84.263336 
	C776.068359,88.212990 775.432617,92.421577 775.432617,96.999786 
	C770.419373,96.999786 765.953308,96.999786 760.989868,97.000732 
z"/>
<path fill="#151414" opacity="1.000000" stroke="none" 
	d="
M163.809311,123.515465 
	C163.852325,109.873894 163.929871,96.232323 163.925507,82.590767 
	C163.922867,74.320778 161.394409,71.612343 153.177887,70.785454 
	C152.185333,70.685570 151.195663,70.555016 150.206131,70.427261 
	C141.306274,69.278267 138.795929,63.478962 144.515320,56.420433 
	C152.241669,46.885014 162.695419,44.123718 174.131378,47.162876 
	C193.983902,52.438770 208.106201,64.539536 213.235977,84.937263 
	C214.895187,91.534874 213.918167,98.808502 214.043488,105.774757 
	C214.145187,111.429214 214.091888,117.086456 214.086975,123.677208 
	C214.094574,129.195496 214.122543,133.779022 214.150513,138.362564 
	C214.119507,148.016617 214.244965,157.674210 214.025421,167.323975 
	C213.541229,188.605148 195.567963,209.426498 175.046875,212.422241 
	C171.529755,212.935684 167.873322,212.494873 163.774796,212.494873 
	C163.774796,187.615738 163.774796,163.502823 163.841919,138.453629 
	C163.875793,132.850052 163.842545,128.182755 163.809311,123.515465 
z"/>
<path fill="#231F20" opacity="1.000000" stroke="none" 
	d="
M402.632874,138.386200 
	C402.146942,133.811234 402.114258,129.172211 402.130615,124.037292 
	C404.341522,123.616035 406.503418,123.755798 408.665314,123.755989 
	C528.641724,123.766495 648.618103,123.764404 768.594482,123.767632 
	C775.860474,123.767822 778.846008,126.215683 778.355225,131.787125 
	C778.015442,135.644852 775.950317,137.902451 772.008057,138.179550 
	C770.349243,138.296143 768.676941,138.228516 767.010742,138.228531 
	C647.700867,138.230026 528.391052,138.229446 409.081177,138.233734 
	C407.082794,138.233795 405.084442,138.291367 402.632874,138.386200 
z"/>
<path fill="#231F20" opacity="1.000000" stroke="none" 
	d="
M163.357864,123.587692 
	C163.842545,128.182755 163.875793,132.850052 163.855682,138.017868 
	C142.198288,138.419464 120.594231,138.320541 98.526428,138.190384 
	C98.051521,133.698975 98.040352,129.238800 98.049576,124.301941 
	C119.682114,123.770142 141.294266,123.715034 163.357864,123.587692 
z"/>
<path fill="#231F20" opacity="1.000000" stroke="none" 
	d="
M214.607376,138.321198 
	C214.122543,133.779022 214.094574,129.195496 214.108490,124.122406 
	C220.095413,123.677399 226.040466,123.721939 232.447861,123.771812 
	C232.927307,128.271133 232.944412,132.765121 232.936340,137.738922 
	C226.962204,138.239090 221.013229,138.259460 214.607376,138.321198 
z"/>
<path fill="#6A6A6F" opacity="1.000000" stroke="none" 
	d="
M394.542786,241.922058 
	C395.067719,244.555634 396.681610,247.299500 395.907593,248.855515 
	C395.084930,250.509308 392.090027,251.429825 389.874878,251.945343 
	C387.687775,252.454315 385.289612,252.056503 382.688629,252.056503 
	C382.688629,245.682953 382.688629,239.640961 382.688629,232.215759 
	C387.058350,233.277695 391.009521,233.887436 394.580963,235.396057 
	C395.311493,235.704651 394.618164,239.384125 394.542786,241.922058 
M388.391602,249.933395 
	C390.136383,249.310699 391.983307,248.861542 393.551514,247.938766 
	C393.926270,247.718262 393.622498,245.108414 393.203705,244.978912 
	C390.744568,244.218582 388.158875,243.867661 385.615845,243.378708 
	C385.180145,243.944473 384.744476,244.510239 384.308777,245.076004 
	C385.383362,246.693924 386.457977,248.311844 388.391602,249.933395 
M392.562317,240.225876 
	C393.089478,235.367493 391.859161,234.624863 385.351440,235.978073 
	C385.351440,237.537506 385.351440,239.122223 385.351440,241.264404 
	C387.727081,241.087570 389.813873,240.932251 392.562317,240.225876 
z"/>
<path fill="#736D71" opacity="1.000000" stroke="none" 
	d="
M410.959229,250.241516 
	C411.922424,249.638245 413.386627,249.254471 413.763458,248.394287 
	C415.555359,244.304230 416.974182,240.052139 418.705048,235.933044 
	C419.154083,234.864471 420.249542,234.067551 421.048065,233.145859 
	C421.909088,234.011169 423.119019,234.724823 423.572205,235.767426 
	C425.812836,240.922241 427.853363,246.164062 429.141205,252.234650 
	C428.169495,251.409927 426.640594,250.752686 426.332703,249.728424 
	C425.479584,246.890198 423.604095,245.867813 421.105560,246.577347 
	C419.361359,247.072693 417.929810,248.597458 416.282898,249.528397 
	C414.840393,250.343765 413.292358,250.972321 411.367432,251.465530 
	C410.949066,250.912292 410.954132,250.576904 410.959229,250.241516 
z"/>
<path fill="#6A6A6F" opacity="1.000000" stroke="none" 
	d="
M523.872192,233.146942 
	C524.084229,233.931641 523.989746,235.284531 523.719971,235.320465 
	C522.085144,235.538177 520.398438,235.590759 518.751282,235.445816 
	C514.828064,235.100616 513.584961,236.799057 514.808105,240.891312 
	C517.938354,241.097778 521.247131,241.316010 524.555908,241.534256 
	C524.566956,242.068253 524.578003,242.602234 524.588989,243.136230 
	C521.368469,243.434967 518.148010,243.733719 514.651917,244.058029 
	C514.651917,245.987320 514.651917,247.714203 514.651917,249.994064 
	C518.425476,249.994064 522.006226,249.994064 525.586914,249.994064 
	C525.617188,250.430328 525.647461,250.866592 525.677734,251.302856 
	C521.200439,251.302856 516.723206,251.302856 511.907379,251.302856 
	C511.907379,245.701508 511.907379,239.648956 511.907379,233.106476 
	C515.921631,233.106476 519.703125,233.106476 523.872192,233.146942 
z"/>
<path fill="#6A6A6F" opacity="1.000000" stroke="none" 
	d="
M318.000977,236.125702 
	C317.541870,237.765900 317.452820,239.067505 317.326324,240.916183 
	C320.890472,241.113327 324.193787,241.296036 327.497101,241.478745 
	C327.519257,242.042801 327.541412,242.606873 327.563568,243.170929 
	C324.387878,243.448364 321.212219,243.725815 317.703857,244.032333 
	C317.703857,245.910233 317.703857,247.642014 317.703857,249.697052 
	C321.355804,249.858337 325.005310,250.019516 328.654846,250.180695 
	C328.630524,250.609344 328.606201,251.037994 328.581879,251.466644 
	C324.189606,251.466644 319.797333,251.466644 315.000275,251.466644 
	C315.000275,245.821304 315.000275,239.814682 315.000275,233.669952 
	C319.414490,233.669952 323.784271,233.669952 328.154053,233.669952 
	C328.174103,234.130127 328.194153,234.590317 328.214233,235.050491 
	C324.933136,235.296021 321.652069,235.541550 318.000977,236.125702 
z"/>
<path fill="#6D686D" opacity="1.000000" stroke="none" 
	d="
M275.092834,241.262817 
	C275.350708,246.173416 274.219208,250.524643 269.591095,251.606445 
	C266.660400,252.291489 262.563049,251.496902 260.088715,249.780472 
	C256.582336,247.348083 256.410248,242.968719 257.779999,238.896011 
	C259.160889,234.790176 262.099976,232.747421 266.441620,232.905640 
	C271.544861,233.091629 274.218353,235.996536 275.092834,241.262817 
M265.630737,235.064850 
	C260.420166,237.062073 258.162781,241.731949 260.746063,246.387772 
	C261.686920,248.083511 264.195587,249.814774 266.027557,249.856995 
	C267.874695,249.899551 270.513489,248.310410 271.501556,246.656982 
	C274.253021,242.052734 271.712402,236.802612 265.630737,235.064850 
z"/>
<path fill="#6D686D" opacity="1.000000" stroke="none" 
	d="
M486.514404,242.235474 
	C487.484650,244.714294 489.185791,248.642517 488.579956,249.038208 
	C486.073059,250.675354 482.893188,251.911972 479.912872,252.023544 
	C476.694305,252.144043 474.832703,249.689575 474.586487,246.548248 
	C475.419159,245.740799 476.251801,244.933350 477.084473,244.125885 
	C477.228424,245.311676 476.974640,247.208221 477.589569,247.552307 
	C479.574310,248.662903 481.838348,249.477768 484.082733,249.807266 
	C484.835907,249.917862 486.476074,248.293152 486.569855,247.348373 
	C486.659241,246.447632 485.440430,245.128632 484.470093,244.488892 
	C483.412537,243.791611 481.778809,243.949234 480.752472,243.227600 
	C478.745392,241.816391 476.421906,240.339401 475.387115,238.301727 
	C474.940338,237.421982 477.212952,233.826462 478.524750,233.662628 
	C481.372772,233.306900 484.451782,234.171631 487.313110,234.975830 
	C488.068756,235.188217 488.375610,236.997513 488.888519,238.073502 
	C488.498993,238.364334 488.109467,238.655151 487.719940,238.945984 
	C486.872528,238.050720 486.178162,236.724304 485.143372,236.357040 
	C483.410156,235.741974 481.443848,235.495209 479.610138,235.616241 
	C479.008270,235.655991 477.892426,237.959137 478.071198,238.132095 
	C479.178040,239.202927 480.512939,240.119217 481.916931,240.778183 
	C483.247040,241.402466 484.754822,241.648224 486.514404,242.235474 
z"/>
<path fill="#6D686D" opacity="1.000000" stroke="none" 
	d="
M299.335388,234.050293 
	C306.421082,231.760590 309.631714,233.146698 310.262665,238.410172 
	C309.633301,239.044876 309.003967,239.679596 308.374603,240.314301 
	C307.808533,238.824387 307.648071,236.676208 306.572357,236.013336 
	C305.265594,235.208069 303.159241,235.447067 301.457458,235.674072 
	C300.864960,235.753098 299.880920,237.675110 300.041504,237.845612 
	C301.086487,238.954880 302.352356,239.882996 303.643280,240.720337 
	C304.162476,241.057098 304.945282,240.957870 305.577637,241.154831 
	C308.711029,242.130768 311.901825,243.276291 311.296600,247.436523 
	C310.687103,251.626312 307.361877,252.595963 303.826965,252.445160 
	C299.970734,252.280609 296.851379,250.871094 296.718384,246.505615 
	C297.407928,245.810593 298.097473,245.115585 298.787018,244.420578 
	C299.050659,245.544083 298.975616,247.325912 299.641083,247.668304 
	C301.678833,248.716690 303.967102,249.480499 306.232208,249.766373 
	C306.951385,249.857147 308.329742,248.209061 308.595337,247.152756 
	C308.764984,246.478088 307.628876,245.060425 306.755371,244.628006 
	C305.141418,243.829086 303.261444,243.589722 301.543427,242.974503 
	C296.731354,241.251282 296.050171,238.848724 299.335388,234.050293 
z"/>
<path fill="#717075" opacity="1.000000" stroke="none" 
	d="
M539.783447,249.897614 
	C541.140259,250.080383 542.034912,250.261719 542.929626,250.443054 
	C542.927124,250.768616 542.924622,251.094177 542.922180,251.419739 
	C538.534973,251.419739 534.147827,251.419739 529.329590,251.419739 
	C529.329590,245.833786 529.329590,239.799652 529.329590,233.667053 
	C533.773010,233.667053 538.169495,233.667053 542.565918,233.667053 
	C542.583130,234.130981 542.600342,234.594910 542.617493,235.058838 
	C539.298889,235.304810 535.980225,235.550781 532.118774,235.836990 
	C532.007751,237.311127 531.890991,238.862183 531.745850,240.790161 
	C535.346680,241.076996 538.628784,241.338455 541.910950,241.599899 
	C541.917053,242.131042 541.923157,242.662186 541.929260,243.193329 
	C540.466675,243.361908 539.007935,243.603851 537.540588,243.679565 
	C535.894836,243.764481 534.241394,243.699066 532.062317,243.699066 
	C531.958191,245.708298 531.867920,247.449280 531.741089,249.896194 
	C534.461060,249.896194 536.891174,249.896194 539.783447,249.897614 
z"/>
<path fill="#696569" opacity="1.000000" stroke="none" 
	d="
M355.869293,246.680603 
	C352.665314,251.958420 348.146118,253.700409 343.706635,251.683670 
	C339.450623,249.750290 337.368622,243.973465 339.073700,238.828918 
	C340.497192,234.534042 344.637238,232.182388 349.314575,233.011841 
	C354.845856,233.992722 357.273163,238.832336 355.869293,246.680603 
M352.682281,238.019730 
	C350.254730,237.146271 347.720551,235.352142 345.424927,235.617966 
	C342.090363,236.004089 340.384766,240.954803 341.454987,245.063080 
	C342.367065,248.564423 344.548401,250.531815 348.275330,250.084518 
	C352.666992,249.557434 353.710632,246.290741 353.797943,242.568375 
	C353.827789,241.295822 353.293518,240.010040 352.682281,238.019730 
z"/>
<path fill="#6D686D" opacity="1.000000" stroke="none" 
	d="
M576.334656,250.307953 
	C569.255249,254.366913 563.492676,252.290070 563.549255,245.257507 
	C564.636963,246.447830 565.184387,247.508362 566.034607,247.884628 
	C568.022034,248.764175 570.121460,249.611160 572.245422,249.849976 
	C573.065491,249.942169 574.693787,248.437393 574.822205,247.504410 
	C574.948608,246.586258 573.868896,245.011795 572.914978,244.538696 
	C571.012146,243.594986 568.521118,243.645966 566.859985,242.462387 
	C565.349304,241.385956 563.636353,239.107590 563.810486,237.561478 
	C563.992004,235.949051 566.061462,233.857544 567.764038,233.240356 
	C572.474976,231.532608 575.994324,233.808487 576.702576,239.232697 
	C575.463440,238.143585 574.836548,237.233032 573.989380,236.921341 
	C572.112183,236.230682 570.140686,235.607208 568.171753,235.469070 
	C567.573120,235.427078 566.856873,237.062378 566.194458,237.929474 
	C567.751160,238.931656 569.182739,240.340591 570.886475,240.864532 
	C577.708679,242.962463 578.837219,244.602966 576.334656,250.307953 
z"/>
<path fill="#636069" opacity="1.000000" stroke="none" 
	d="
M459.510803,247.582886 
	C458.317596,245.966400 457.339172,244.640671 455.212769,241.759415 
	C453.980469,245.990707 453.120422,248.943787 452.268951,251.867493 
	C449.912445,249.718124 449.554657,237.572891 452.459167,231.853851 
	C452.849731,235.596115 453.102844,238.021271 453.469147,241.531189 
	C455.556152,239.594955 457.201599,237.959000 458.966095,236.463516 
	C460.572968,235.101685 462.309052,233.892334 463.988159,232.615753 
	C464.308899,233.004425 464.629669,233.393097 464.950439,233.781769 
	C462.751373,236.139435 460.552307,238.497101 458.153564,241.068832 
	C460.683655,244.574951 463.089783,247.909317 465.495911,251.243668 
	C465.129211,251.649307 464.762512,252.054947 464.395782,252.460602 
	C462.839050,250.931610 461.282318,249.402634 459.510803,247.582886 
z"/>
<path fill="#6D686D" opacity="1.000000" stroke="none" 
	d="
M286.774933,249.783325 
	C291.085144,248.421646 290.220673,245.067261 290.378082,242.201477 
	C290.543671,239.185776 290.577637,236.162857 290.669159,233.143097 
	C291.519012,233.198929 292.368896,233.254776 293.218750,233.310623 
	C292.976593,238.419937 293.397339,243.677322 292.298920,248.595383 
	C291.275665,253.176880 282.800018,253.922897 279.770996,250.121368 
	C277.587128,247.380539 277.459381,236.766525 281.004791,233.133789 
	C281.004791,236.721695 281.063416,240.310837 280.988647,243.897186 
	C280.910828,247.629822 282.127716,250.077835 286.774933,249.783325 
z"/>
<path fill="#6D686D" opacity="1.000000" stroke="none" 
	d="
M254.124176,249.608932 
	C253.730698,250.681290 253.342758,251.296402 252.954834,251.911499 
	C252.455490,251.399170 251.564407,250.915039 251.525162,250.369614 
	C251.362350,248.107254 251.456787,245.826385 251.456787,243.326996 
	C248.107040,243.326996 245.358063,243.326996 242.245987,243.326996 
	C242.084839,246.289780 241.931381,249.111282 241.751419,252.420044 
	C238.509979,249.615952 238.308868,236.485214 241.510757,232.403458 
	C241.828323,235.607376 242.072052,238.066360 242.334427,240.713409 
	C245.272369,240.713409 248.028275,240.713409 250.931427,240.713409 
	C251.337128,238.100784 251.724792,235.604263 252.112473,233.107742 
	C252.784882,233.151917 253.457306,233.196091 254.129715,233.240265 
	C254.129715,238.544067 254.129715,243.847870 254.124176,249.608932 
z"/>
<path fill="#736D71" opacity="1.000000" stroke="none" 
	d="
M546.124878,245.848114 
	C546.124878,241.571915 546.124878,237.771347 546.124878,234.061020 
	C553.560974,231.690369 559.487854,233.101685 560.561768,237.344757 
	C561.648865,241.639938 559.289612,243.246643 549.387329,244.914597 
	C549.084534,247.143646 548.794739,249.398743 548.436707,251.642960 
	C548.412476,251.794754 547.875000,251.864624 546.691162,252.292404 
	C546.489441,250.166779 546.307129,248.245270 546.124878,245.848114 
M554.768188,235.444183 
	C553.008728,235.444183 551.249268,235.444183 549.334167,235.444183 
	C549.334167,237.839615 549.334167,239.839172 549.334167,243.153229 
	C552.611084,241.888794 555.133972,240.915329 557.656799,239.941864 
	C556.955566,238.511841 556.254333,237.081818 554.768188,235.444183 
z"/>
<path fill="#6D686D" opacity="1.000000" stroke="none" 
	d="
M445.401825,250.537781 
	C441.152985,253.282578 437.059479,253.476883 433.816833,249.960754 
	C430.486969,246.350067 430.240631,241.808685 432.363312,237.399185 
	C434.186676,233.611481 437.592072,232.392227 441.540283,233.020309 
	C444.543030,233.497986 446.987579,234.861725 446.891968,239.480286 
	C443.163910,236.534683 439.403534,232.049133 435.950165,237.148880 
	C434.229889,239.689301 433.981110,245.120636 435.584808,247.643707 
	C439.564117,253.904236 443.358246,248.012497 447.008667,245.502029 
	C447.275574,245.809204 447.542480,246.116379 447.809387,246.423569 
	C447.096802,247.712997 446.384247,249.002426 445.401825,250.537781 
z"/>
<path fill="#7F7777" opacity="1.000000" stroke="none" 
	d="
M359.184082,247.726013 
	C359.207520,243.108078 359.224792,238.958038 359.267365,234.808258 
	C359.270569,234.496872 359.454315,234.187347 359.682007,233.479340 
	C363.658752,233.479340 367.756287,233.479340 371.853851,233.479340 
	C371.923401,234.006668 371.992950,234.533997 372.062500,235.061325 
	C368.927429,235.348297 365.792389,235.635254 362.372925,235.948257 
	C362.290527,237.529495 362.216492,238.950485 362.125580,240.695129 
	C365.164154,241.019501 367.969116,241.318924 370.774048,241.618362 
	C370.789764,242.106918 370.805481,242.595474 370.821198,243.084030 
	C368.125671,243.436646 365.430115,243.789276 362.413940,244.183838 
	C362.210999,246.687866 362.002869,249.255936 361.794769,251.824005 
	C361.322815,251.946411 360.850891,252.068817 360.378967,252.191208 
	C359.980713,250.858795 359.582489,249.526382 359.184082,247.726013 
z"/>
<path fill="#473940" opacity="1.000000" stroke="none" 
	d="
M793.114319,66.062881 
	C789.836365,69.170097 785.782410,70.805435 781.813354,68.591560 
	C779.274170,67.175255 776.793945,64.171593 776.019592,61.396202 
	C774.609131,56.341595 776.991272,52.275589 781.399902,50.534462 
	C786.015259,48.711628 790.176575,49.395981 793.602661,54.315659 
	C793.977417,55.902981 793.968750,56.931484 793.639648,57.897011 
	C792.550171,56.577103 791.781128,55.320168 790.939270,53.815609 
	C790.421448,53.357475 789.976501,53.146965 789.228149,52.622952 
	C786.968018,52.225986 785.011169,52.142521 782.724426,52.046532 
	C781.527222,52.677452 780.660034,53.320896 779.475952,54.129169 
	C776.594421,58.060818 776.021729,61.696701 780.020020,65.368240 
	C783.976135,68.464249 787.621216,68.734505 791.283569,64.865784 
	C791.819519,64.171875 792.088196,63.627312 792.535095,63.007893 
	C792.871704,62.713093 792.937134,62.468227 793.167114,62.107338 
	C793.605774,61.994793 793.786682,61.973347 794.075562,62.307602 
	C793.827148,63.796494 793.470703,64.929688 793.114319,66.062881 
z"/>
<path fill="#62595C" opacity="1.000000" stroke="none" 
	d="
M504.800934,244.328888 
	C501.736786,243.522461 498.742523,243.161560 495.425995,242.761795 
	C495.237549,246.335129 495.090302,249.126755 494.943085,251.918396 
	C494.444550,251.903488 493.945984,251.888596 493.447449,251.873703 
	C493.447449,245.729721 493.447449,239.585739 493.447449,233.441757 
	C493.787964,233.368225 494.128479,233.294693 494.468994,233.221176 
	C494.840271,235.532333 495.211517,237.843506 495.652679,240.589874 
	C498.293945,240.589874 501.193878,240.589874 504.516541,240.589874 
	C504.762939,238.348343 505.037445,235.851074 505.311920,233.353806 
	C505.784454,233.361801 506.257019,233.369797 506.729553,233.377792 
	C507.982056,239.478790 507.175934,245.645493 507.243835,251.784302 
	C506.588135,251.836426 505.932434,251.888550 505.276733,251.940674 
	C505.141449,249.551910 505.006134,247.163147 504.800934,244.328888 
z"/>
<path fill="#62595C" opacity="1.000000" stroke="none" 
	d="
M410.516846,250.121521 
	C410.954132,250.576904 410.949066,250.912292 410.950928,251.499222 
	C407.494781,251.750763 404.031708,251.750763 400.362640,251.750763 
	C400.362640,245.601669 400.362640,239.501770 400.362640,233.401855 
	C400.838409,233.364822 401.314209,233.327774 401.789978,233.290726 
	C401.789978,238.638382 401.789978,243.986023 401.789978,250.001541 
	C405.183838,250.001541 407.629181,250.001541 410.516846,250.121521 
z"/>
<path fill="#D9E7EB" opacity="1.000000" stroke="none" 
	d="
M793.433533,65.887238 
	C793.470703,64.929688 793.827148,63.796494 794.074951,61.908459 
	C793.964294,60.089073 793.962158,59.024529 793.960083,57.959988 
	C793.968750,56.931484 793.977417,55.902981 793.886841,54.498550 
	C796.906982,57.995052 796.923828,61.858131 793.433533,65.887238 
z"/>
<path fill="#F7F8F6" opacity="1.000000" stroke="none" 
	d="
M387.962097,249.931580 
	C386.457977,248.311844 385.383362,246.693924 384.308777,245.076004 
	C384.744476,244.510239 385.180145,243.944473 385.615845,243.378708 
	C388.158875,243.867661 390.744568,244.218582 393.203705,244.978912 
	C393.622498,245.108414 393.926270,247.718262 393.551514,247.938766 
	C391.983307,248.861542 390.136383,249.310699 387.962097,249.931580 
z"/>
<path fill="#F4F5F0" opacity="1.000000" stroke="none" 
	d="
M392.231506,240.501404 
	C389.813873,240.932251 387.727081,241.087570 385.351440,241.264404 
	C385.351440,239.122223 385.351440,237.537506 385.351440,235.978073 
	C391.859161,234.624863 393.089478,235.367493 392.231506,240.501404 
z"/>
<path fill="#F9FBFA" opacity="1.000000" stroke="none" 
	d="
M266.028137,235.061493 
	C271.712402,236.802612 274.253021,242.052734 271.501556,246.656982 
	C270.513489,248.310410 267.874695,249.899551 266.027557,249.856995 
	C264.195587,249.814774 261.686920,248.083511 260.746063,246.387772 
	C258.162781,241.731949 260.420166,237.062073 266.028137,235.061493 
z"/>
<path fill="#F7F8F6" opacity="1.000000" stroke="none" 
	d="
M352.849609,238.375000 
	C353.293518,240.010040 353.827789,241.295822 353.797943,242.568375 
	C353.710632,246.290741 352.666992,249.557434 348.275330,250.084518 
	C344.548401,250.531815 342.367065,248.564423 341.454987,245.063080 
	C340.384766,240.954803 342.090363,236.004089 345.424927,235.617966 
	C347.720551,235.352142 350.254730,237.146271 352.849609,238.375000 
z"/>
<path fill="#F4F5F0" opacity="1.000000" stroke="none" 
	d="
M555.160645,235.547989 
	C556.254333,237.081818 556.955566,238.511841 557.656799,239.941864 
	C555.133972,240.915329 552.611084,241.888794 549.334167,243.153229 
	C549.334167,239.839172 549.334167,237.839615 549.334167,235.444183 
	C551.249268,235.444183 553.008728,235.444183 555.160645,235.547989 
z"/>
<path fill="#DEE0D7" opacity="1.000000" stroke="none" 
	d="
M791.016418,65.015114 
	C787.621216,68.734505 783.976135,68.464249 780.348267,65.206894 
	C781.981506,62.747940 783.440918,60.776299 785.185547,59.018753 
	C786.987610,60.833050 788.504333,62.433258 790.132446,64.246017 
	C790.450928,64.714066 790.708435,64.899590 791.016418,65.015114 
z"/>
<path fill="#FDFBE3" opacity="1.000000" stroke="none" 
	d="
M784.900269,58.804649 
	C783.440918,60.776299 781.981506,62.747940 780.193848,64.880936 
	C776.021729,61.696701 776.594421,58.060818 779.833191,54.168365 
	C781.971619,55.630035 783.435913,57.217339 784.900269,58.804649 
z"/>
<path fill="#D9E7EB" opacity="1.000000" stroke="none" 
	d="
M785.185547,59.018742 
	C783.435913,57.217339 781.971619,55.630035 780.150024,54.003532 
	C780.660034,53.320896 781.527222,52.677452 782.934570,52.300632 
	C785.493652,52.690319 787.512573,52.813377 789.531555,52.936440 
	C789.976501,53.146965 790.421448,53.357475 790.778809,54.130119 
	C790.354187,57.797832 787.234802,60.703812 790.021118,64.033478 
	C788.504333,62.433258 786.987610,60.833050 785.185547,59.018742 
z"/>
<path fill="#FEFEFE" opacity="1.000000" stroke="none" 
	d="
M790.132446,64.246017 
	C787.234802,60.703812 790.354187,57.797832 790.851685,54.377739 
	C791.781128,55.320168 792.550171,56.577103 793.639648,57.897011 
	C793.962158,59.024529 793.964294,60.089073 793.966980,61.552757 
	C793.786682,61.973347 793.605774,61.994793 792.973877,62.174622 
	C792.268311,62.538521 792.213013,62.788433 792.356873,63.082745 
	C792.088196,63.627312 791.819519,64.171875 791.283569,64.865784 
	C790.708435,64.899590 790.450928,64.714066 790.132446,64.246017 
z"/>
<path fill="#FEFEFE" opacity="1.000000" stroke="none" 
	d="
M789.228149,52.622940 
	C787.512573,52.813377 785.493652,52.690319 783.264526,52.313160 
	C785.011169,52.142521 786.968018,52.225986 789.228149,52.622940 
z"/>
<path fill="#D9E7EB" opacity="1.000000" stroke="none" 
	d="
M792.535095,63.007889 
	C792.213013,62.788433 792.268311,62.538521 792.716187,62.265724 
	C792.937134,62.468227 792.871704,62.713093 792.535095,63.007889 
z"/>
</svg>